<?xml version="1.0" encoding="UTF-8"?>
<svg width="1200" height="800" viewBox="0 0 1200 800" xmlns="http://www.w3.org/2000/svg">
  <!-- 背景 -->
  <rect width="1200" height="800" fill="#0f1419"/>
  
  <!-- 顶部导航栏 -->
  <rect x="0" y="0" width="1200" height="60" fill="#2c3e50" stroke="#485563"/>
  
  <!-- 汉堡菜单按钮 -->
  <rect x="15" y="20" width="20" height="20" fill="transparent"/>
  <rect x="15" y="22" width="20" height="2" fill="#ecf0f1"/>
  <rect x="15" y="28" width="20" height="2" fill="#ecf0f1"/>
  <rect x="15" y="34" width="20" height="2" fill="#ecf0f1"/>
  
  <!-- Logo和标题 -->
  <circle cx="55" cy="30" r="15" fill="#e74c3c"/>
  <text x="80" y="38" font-family="Arial, sans-serif" font-size="18" font-weight="bold" fill="#ffffff">OWON AI 助手</text>
  
  <!-- 已登录用户头像和下拉菜单 -->
  <circle cx="1150" cy="30" r="20" fill="#34495e" stroke="#5d6d7e"/>
  <text x="1150" y="35" font-family="Arial, sans-serif" font-size="12" text-anchor="middle" fill="#ecf0f1">用户</text>
  
  <!-- 左侧导航栏 (收缩状态) -->
  <rect x="0" y="60" width="60" height="740" fill="#2c3e50" stroke="#485563"/>
  
  <!-- 返回按钮 -->
  <rect x="10" y="75" width="40" height="30" rx="4" fill="#34495e"/>
  <text x="30" y="93" font-family="Arial, sans-serif" font-size="12" text-anchor="middle" fill="#bdc3c7">←</text>
  
  <!-- 新建聊天按钮 (收缩状态) -->
  <rect x="10" y="115" width="40" height="40" rx="6" fill="#e74c3c"/>
  <text x="30" y="139" font-family="Arial, sans-serif" font-size="16" text-anchor="middle" fill="#ffffff">+</text>
  
  <!-- 排行榜按钮 (当前页面 - 高亮状态) -->
  <rect x="10" y="720" width="40" height="40" rx="6" fill="#ff6b35" stroke="#e74c3c"/>
  <text x="30" y="743" font-family="Arial, sans-serif" font-size="16" text-anchor="middle" fill="#ffffff">🏆</text>
  
  <!-- 主内容区域 -->
  <rect x="80" y="80" width="1100" height="700" fill="#2c3e50" rx="8" stroke="#485563"/>
  
  <!-- 页面标题 -->
  <text x="120" y="120" font-family="Arial, sans-serif" font-size="24" font-weight="bold" fill="#ffffff">🏆 问答排行榜</text>
  <text x="120" y="145" font-family="Arial, sans-serif" font-size="14" fill="#bdc3c7">最受欢迎的问题和回答</text>
  
  <!-- 筛选选项卡 -->
  <rect x="120" y="170" width="100" height="35" rx="18" fill="#ff6b35" stroke="#e74c3c"/>
  <text x="170" y="190" font-family="Arial, sans-serif" font-size="14" text-anchor="middle" fill="#ffffff">本周热门</text>
  
  <rect x="230" y="170" width="100" height="35" rx="18" fill="#34495e" stroke="#485563"/>
  <text x="280" y="190" font-family="Arial, sans-serif" font-size="14" text-anchor="middle" fill="#bdc3c7">全部时间</text>
  
  <rect x="340" y="170" width="100" height="35" rx="18" fill="#34495e" stroke="#485563"/>
  <text x="390" y="190" font-family="Arial, sans-serif" font-size="14" text-anchor="middle" fill="#bdc3c7">我的关注</text>
  
  <!-- 排行榜列表 -->
  <!-- 第1名 -->
  <rect x="120" y="230" width="1000" height="80" rx="8" fill="#1a2332" stroke="#ff6b35"/>
  <circle cx="150" cy="270" r="20" fill="#ffd700"/>
  <text x="150" y="278" font-family="Arial, sans-serif" font-size="16" font-weight="bold" text-anchor="middle" fill="#0f1419">1</text>
  
  <text x="190" y="255" font-family="Arial, sans-serif" font-size="16" font-weight="bold" fill="#ffffff">示波器波形噪声问题的完整解决方案</text>
  <text x="190" y="275" font-family="Arial, sans-serif" font-size="13" fill="#bdc3c7">我的示波器显示的波形有噪声，尝试了多种方法都没有改善，请问应该如何系统性地排查和解决？</text>
  
  <!-- 统计信息 -->
  <g transform="translate(190, 290)">
    <text x="0" y="0" font-family="Arial, sans-serif" font-size="11" fill="#95a5a6">👍 156</text>
    <text x="60" y="0" font-family="Arial, sans-serif" font-size="11" fill="#95a5a6">💬 42</text>
    <text x="120" y="0" font-family="Arial, sans-serif" font-size="11" fill="#95a5a6">🔥 89.5%</text>
    <text x="200" y="0" font-family="Arial, sans-serif" font-size="11" fill="#95a5a6">3天前</text>
  </g>
  
  <!-- 查看详情按钮 -->
  <rect x="1020" y="250" width="80" height="30" rx="15" fill="#ff6b35"/>
  <text x="1060" y="268" font-family="Arial, sans-serif" font-size="12" text-anchor="middle" fill="#ffffff">查看详情</text>
  
  <!-- 第2名 -->
  <rect x="120" y="320" width="1000" height="80" rx="8" fill="#1a2332" stroke="#34495e"/>
  <circle cx="150" cy="360" r="20" fill="#c0c0c0"/>
  <text x="150" y="368" font-family="Arial, sans-serif" font-size="16" font-weight="bold" text-anchor="middle" fill="#0f1419">2</text>
  
  <text x="190" y="345" font-family="Arial, sans-serif" font-size="16" font-weight="bold" fill="#ffffff">OWON SDS1104X-E 触发设置详解</text>
  <text x="190" y="365" font-family="Arial, sans-serif" font-size="13" fill="#bdc3c7">如何正确设置SDS1104X-E的触发条件来捕获特定的信号波形？</text>
  
  <!-- 统计信息 -->
  <g transform="translate(190, 380)">
    <text x="0" y="0" font-family="Arial, sans-serif" font-size="11" fill="#95a5a6">👍 132</text>
    <text x="60" y="0" font-family="Arial, sans-serif" font-size="11" fill="#95a5a6">💬 38</text>
    <text x="120" y="0" font-family="Arial, sans-serif" font-size="11" fill="#95a5a6">🔥 84.2%</text>
    <text x="200" y="0" font-family="Arial, sans-serif" font-size="11" fill="#95a5a6">5天前</text>
  </g>
  
  <!-- 查看详情按钮 -->
  <rect x="1020" y="340" width="80" height="30" rx="15" fill="#34495e"/>
  <text x="1060" y="358" font-family="Arial, sans-serif" font-size="12" text-anchor="middle" fill="#bdc3c7">查看详情</text>
  
  <!-- 第3名 -->
  <rect x="120" y="410" width="1000" height="80" rx="8" fill="#1a2332" stroke="#34495e"/>
  <circle cx="150" cy="450" r="20" fill="#cd7f32"/>
  <text x="150" y="458" font-family="Arial, sans-serif" font-size="16" font-weight="bold" text-anchor="middle" fill="#ffffff">3</text>
  
  <text x="190" y="435" font-family="Arial, sans-serif" font-size="16" font-weight="bold" fill="#ffffff">电源模块故障诊断步骤</text>
  <text x="190" y="455" font-family="Arial, sans-serif" font-size="13" fill="#bdc3c7">电源模块显示错误代码，应该按照什么顺序进行故障排查？</text>
  
  <!-- 统计信息 -->
  <g transform="translate(190, 470)">
    <text x="0" y="0" font-family="Arial, sans-serif" font-size="11" fill="#95a5a6">👍 98</text>
    <text x="60" y="0" font-family="Arial, sans-serif" font-size="11" fill="#95a5a6">💬 29</text>
    <text x="120" y="0" font-family="Arial, sans-serif" font-size="11" fill="#95a5a6">🔥 78.9%</text>
    <text x="200" y="0" font-family="Arial, sans-serif" font-size="11" fill="#95a5a6">1周前</text>
  </g>
  
  <!-- 查看详情按钮 -->
  <rect x="1020" y="430" width="80" height="30" rx="15" fill="#34495e"/>
  <text x="1060" y="448" font-family="Arial, sans-serif" font-size="12" text-anchor="middle" fill="#bdc3c7">查看详情</text>
  
  <!-- 第4名 -->
  <rect x="120" y="500" width="1000" height="80" rx="8" fill="#1a2332" stroke="#34495e"/>
  <circle cx="150" cy="540" r="20" fill="#34495e"/>
  <text x="150" y="548" font-family="Arial, sans-serif" font-size="16" font-weight="bold" text-anchor="middle" fill="#bdc3c7">4</text>
  
  <text x="190" y="525" font-family="Arial, sans-serif" font-size="16" font-weight="bold" fill="#ffffff">万用表精度校准方法</text>
  <text x="190" y="545" font-family="Arial, sans-serif" font-size="13" fill="#bdc3c7">如何对OWON万用表进行精度校准以确保测量结果的准确性？</text>
  
  <!-- 统计信息 -->
  <g transform="translate(190, 560)">
    <text x="0" y="0" font-family="Arial, sans-serif" font-size="11" fill="#95a5a6">👍 76</text>
    <text x="60" y="0" font-family="Arial, sans-serif" font-size="11" fill="#95a5a6">💬 23</text>
    <text x="120" y="0" font-family="Arial, sans-serif" font-size="11" fill="#95a5a6">🔥 72.1%</text>
    <text x="200" y="0" font-family="Arial, sans-serif" font-size="11" fill="#95a5a6">1周前</text>
  </g>
  
  <!-- 查看详情按钮 -->
  <rect x="1020" y="520" width="80" height="30" rx="15" fill="#34495e"/>
  <text x="1060" y="538" font-family="Arial, sans-serif" font-size="12" text-anchor="middle" fill="#bdc3c7">查看详情</text>
  
  <!-- 第5名 -->
  <rect x="120" y="590" width="1000" height="80" rx="8" fill="#1a2332" stroke="#34495e"/>
  <circle cx="150" cy="630" r="20" fill="#34495e"/>
  <text x="150" y="638" font-family="Arial, sans-serif" font-size="16" font-weight="bold" text-anchor="middle" fill="#bdc3c7">5</text>
  
  <text x="190" y="615" font-family="Arial, sans-serif" font-size="16" font-weight="bold" fill="#ffffff">信号发生器波形失真问题</text>
  <text x="190" y="635" font-family="Arial, sans-serif" font-size="13" fill="#bdc3c7">信号发生器输出的波形出现失真，可能的原因和解决方法？</text>
  
  <!-- 统计信息 -->
  <g transform="translate(190, 650)">
    <text x="0" y="0" font-family="Arial, sans-serif" font-size="11" fill="#95a5a6">👍 64</text>
    <text x="60" y="0" font-family="Arial, sans-serif" font-size="11" fill="#95a5a6">💬 18</text>
    <text x="120" y="0" font-family="Arial, sans-serif" font-size="11" fill="#95a5a6">🔥 68.7%</text>
    <text x="200" y="0" font-family="Arial, sans-serif" font-size="11" fill="#95a5a6">2周前</text>
  </g>
  
  <!-- 查看详情按钮 -->
  <rect x="1020" y="610" width="80" height="30" rx="15" fill="#34495e"/>
  <text x="1060" y="628" font-family="Arial, sans-serif" font-size="12" text-anchor="middle" fill="#bdc3c7">查看详情</text>
  
  <!-- 分页导航 -->
  <g transform="translate(120, 700)">
    <rect x="0" y="0" width="40" height="30" rx="4" fill="#34495e"/>
    <text x="20" y="18" font-family="Arial, sans-serif" font-size="12" text-anchor="middle" fill="#bdc3c7">←</text>
    
    <rect x="50" y="0" width="30" height="30" rx="4" fill="#ff6b35"/>
    <text x="65" y="18" font-family="Arial, sans-serif" font-size="12" text-anchor="middle" fill="#ffffff">1</text>
    
    <rect x="90" y="0" width="30" height="30" rx="4" fill="#34495e"/>
    <text x="105" y="18" font-family="Arial, sans-serif" font-size="12" text-anchor="middle" fill="#bdc3c7">2</text>
    
    <rect x="130" y="0" width="30" height="30" rx="4" fill="#34495e"/>
    <text x="145" y="18" font-family="Arial, sans-serif" font-size="12" text-anchor="middle" fill="#bdc3c7">3</text>
    
    <rect x="170" y="0" width="40" height="30" rx="4" fill="#34495e"/>
    <text x="190" y="18" font-family="Arial, sans-serif" font-size="12" text-anchor="middle" fill="#bdc3c7">→</text>
  </g>
  
  <!-- 浮动操作按钮 -->
  <circle cx="1120" cy="720" r="30" fill="#e74c3c"/>
  <text x="1120" y="728" font-family="Arial, sans-serif" font-size="20" text-anchor="middle" fill="#ffffff">+</text>
  <text x="1120" y="765" font-family="Arial, sans-serif" font-size="10" text-anchor="middle" fill="#bdc3c7">发起新提问</text>
  
  <!-- 标注说明 -->
  <text x="20" y="30" font-family="Arial, sans-serif" font-size="12" fill="#bdc3c7">问答排行榜页面 - 展示最受欢迎的问题和答案</text>
</svg> 